# xmcd
#
# Track frame offsets: 
#        150
#        10807
#        30361
#        48171
#        63281
#        97631
#        114167
#        128891
#        161162
#        172502
#        188859
#        203797
#        232633
#        279983
#
# Disc length: 3914 seconds
#
# Revision: 1
# Processed by: cddbd v1.5.2PL0 Copyright (c) Steve Scherf et al.
# Submitted via: ExactAudioCopyFreeDBPlugin 1.0
#
DISCID=980f480e
DTITLE=Various Artist - Mozart - Ein Genie auf Reisen
DYEAR=1900
DGENRE=Classical
TTITLE0=Capella Istropolitana - La Finta Giardiniera
TTITLE1=Northern Chamber Orch. - Mozart: Symphony #4 In D, K 19 - Anda
TTITLE1=nte
TTITLE2=Mitridate, re di ponto
TTITLE3=Capella Istropolitana - Mozart: Il Re Pastore - Overture
TTITLE4=Academy of St. Martin in the Fields - Sinfonie Nr 31 D-Dur
TTITLE5=Mozart: Piano Sonata #11 In A, K 331 - Alla Turca
TTITLE6=Idomeneo
TTITLE7=Sinfonie Nr 34 C-Dur
TTITLE8=Mozart: Die Entführung Aus Dem Serail, K 384 - Welche Wonne, W
TTITLE8=elche Lust
TTITLE9=Mozart: Symphony #36 In C, K 425, "Linz" - 3. Menuetto and Trio
TTITLE10=Mozart: Don Giovanni, K 527 - Là Ci Darem La Mano
TTITLE11=Mozart: String Quartet #22 In B Flat, K 589 - Menuetto: Moder
TTITLE11=ato
TTITLE12=Mozart: Piano Concerto #26 In D, K 537, "Coronation" - 3. All
TTITLE12=egretto
TTITLE13=Mozart: Die Zauberflöte, K 620 - Act 2: Die Strahlen Der Sonn
TTITLE13=e
EXTD=
EXTT0=
EXTT1=
EXTT2=
EXTT3=
EXTT4=
EXTT5=
EXTT6=
EXTT7=
EXTT8=
EXTT9=
EXTT10=
EXTT11=
EXTT12=
EXTT13=
PLAYORDER=
